<svg width="26" height="26" viewBox="0 0 26 26" fill="none" xmlns="http://www.w3.org/2000/svg">
<path fill-rule="evenodd" clip-rule="evenodd" d="M20.9792 4.6562C18.2292 2.7812 14.8334 3.6562 13.0001 5.80203C11.1667 3.6562 7.77089 2.77078 5.02089 4.6562C3.56256 5.6562 2.64589 7.3437 2.58339 9.12495C2.43756 13.1666 6.02089 16.4062 11.4896 21.3749L11.5938 21.4687C12.3855 22.1874 13.6042 22.1875 14.3959 21.4583L14.5105 21.3541C19.9792 16.3958 23.5521 13.1562 23.4167 9.11453C23.3542 7.3437 22.4376 5.6562 20.9792 4.6562V4.6562ZM13.1042 19.8229L13.0001 19.927L12.8959 19.8229C7.93756 15.3333 4.66673 12.3645 4.66673 9.35412C4.66673 7.27078 6.22923 5.70828 8.31256 5.70828C9.91673 5.70828 11.4792 6.73953 12.0313 8.16661H13.9792C14.5209 6.73953 16.0834 5.70828 17.6876 5.70828C19.7709 5.70828 21.3334 7.27078 21.3334 9.35412C21.3334 12.3645 18.0626 15.3333 13.1042 19.8229Z" fill="#18214D"/>
</svg>
